<svg width="20" height="20" viewBox="0 0 20 20" fill="none" xmlns="http://www.w3.org/2000/svg">
<path d="M14.9074 4.22101C15.6738 4.22101 16.2947 3.60427 16.2947 2.83644V1.38731C16.2947 0.618797 15.6745 0 14.9074 0C14.1402 0 13.5208 0.618111 13.5208 1.38731V2.83713C13.5214 3.60427 14.1409 4.22101 14.9074 4.22101Z" fill="#00D053"/>
<path d="M19.8364 2.89904C19.8361 2.62313 19.6123 2.39964 19.3364 2.39964H17.5433C17.2672 2.39964 17.0433 2.6235 17.0433 2.89964V3.10498C17.0433 4.26908 16.0976 5.21754 14.9315 5.21754C13.7639 5.21754 12.8203 4.26908 12.8203 3.10498V2.89964C12.8203 2.6235 12.5964 2.39964 12.3203 2.39964H7.68516C7.40902 2.39964 7.18516 2.6235 7.18516 2.89964V3.10498C7.18516 4.26908 6.23808 5.21754 5.0726 5.21754C3.90712 5.21754 2.96072 4.26977 2.96072 3.10498V2.89347C2.96072 2.61975 2.74063 2.39691 2.46693 2.3935L0.649037 2.37091C0.370486 2.36745 0.142822 2.5923 0.142822 2.87087V19.5C0.142822 19.7761 0.36668 20 0.642822 20H1.55211H18.4499L19.358 19.9973C19.6338 19.9965 19.8568 19.7725 19.8565 19.4967L19.8364 2.89904ZM18.4485 18.5955H2.05211C1.77597 18.5955 1.55211 18.3717 1.55211 18.0955V7.82942C1.55211 7.55328 1.77597 7.32942 2.05211 7.32942H17.9499C18.226 7.32942 18.4499 7.55328 18.4499 7.82942V18.5941C18.4499 18.5949 18.4493 18.5955 18.4485 18.5955Z" fill="#00D053"/>
<path d="M5.05074 4.22101C5.81719 4.22101 6.43874 3.60427 6.43874 2.83644V1.38731C6.43874 0.618111 5.81719 0 5.05074 0C4.28428 0 3.66479 0.618111 3.66479 1.38731V2.83713C3.66479 3.60427 4.28359 4.22101 5.05074 4.22101Z" fill="#00D053"/>
<path d="M9.30823 8.84104H7.28921C7.23398 8.84104 7.18921 8.88581 7.18921 8.94104V10.6998C7.18921 10.755 7.23398 10.7998 7.28921 10.7998H9.30823C9.36345 10.7998 9.40823 10.755 9.40823 10.6998V8.94104C9.40823 8.88581 9.36345 8.84104 9.30823 8.84104Z" fill="#00D053"/>
<path d="M12.8982 8.84104H10.8771C10.8219 8.84104 10.7771 8.88581 10.7771 8.94104V10.6998C10.7771 10.755 10.8219 10.7998 10.8771 10.7998H12.8982C12.9534 10.7998 12.9982 10.755 12.9982 10.6998V8.94104C12.9982 8.88581 12.9534 8.84104 12.8982 8.84104Z" fill="#00D053"/>
<path d="M16.2235 8.84104H14.2045C14.1493 8.84104 14.1045 8.88581 14.1045 8.94104V10.6998C14.1045 10.755 14.1493 10.7998 14.2045 10.7998H16.2235C16.2787 10.7998 16.3235 10.755 16.3235 10.6998V8.94104C16.3235 8.88581 16.2787 8.84104 16.2235 8.84104Z" fill="#00D053"/>
<path d="M9.30823 12.0937H7.28921C7.23398 12.0937 7.18921 12.1384 7.18921 12.1937V13.951C7.18921 14.0063 7.23398 14.051 7.28921 14.051H9.30823C9.36345 14.051 9.40823 14.0063 9.40823 13.951V12.1937C9.40823 12.1384 9.36345 12.0937 9.30823 12.0937Z" fill="#00D053"/>
<path d="M12.8982 12.0937H10.8771C10.8219 12.0937 10.7771 12.1384 10.7771 12.1937V13.951C10.7771 14.0063 10.8219 14.051 10.8771 14.051H12.8982C12.9534 14.051 12.9982 14.0063 12.9982 13.951V12.1937C12.9982 12.1384 12.9534 12.0937 12.8982 12.0937Z" fill="#00D053"/>
<path d="M16.2235 12.0937H14.2045C14.1493 12.0937 14.1045 12.1384 14.1045 12.1937V13.951C14.1045 14.0063 14.1493 14.051 14.2045 14.051H16.2235C16.2787 14.051 16.3235 14.0063 16.3235 13.951V12.1937C16.3235 12.1384 16.2787 12.0937 16.2235 12.0937Z" fill="#00D053"/>
<path d="M9.30823 15.4109H7.28921C7.23398 15.4109 7.18921 15.4556 7.18921 15.5109V17.2682C7.18921 17.3235 7.23398 17.3682 7.28921 17.3682H9.30823C9.36345 17.3682 9.40823 17.3235 9.40823 17.2682V15.5109C9.40823 15.4556 9.36345 15.4109 9.30823 15.4109Z" fill="#00D053"/>
<path d="M5.78244 12.0937H3.76479C3.70957 12.0937 3.66479 12.1384 3.66479 12.1937V13.951C3.66479 14.0063 3.70957 14.051 3.76479 14.051H5.78244C5.83767 14.051 5.88244 14.0063 5.88244 13.951V12.1937C5.88244 12.1384 5.83767 12.0937 5.78244 12.0937Z" fill="#00D053"/>
<path d="M5.78244 15.4109H3.76479C3.70957 15.4109 3.66479 15.4556 3.66479 15.5109V17.2682C3.66479 17.3235 3.70957 17.3682 3.76479 17.3682H5.78244C5.83767 17.3682 5.88244 17.3235 5.88244 17.2682V15.5109C5.88244 15.4556 5.83767 15.4109 5.78244 15.4109Z" fill="#00D053"/>
<path d="M12.8982 15.4109H10.8771C10.8219 15.4109 10.7771 15.4556 10.7771 15.5109V17.2682C10.7771 17.3235 10.8219 17.3682 10.8771 17.3682H12.8982C12.9534 17.3682 12.9982 17.3235 12.9982 17.2682V15.5109C12.9982 15.4556 12.9534 15.4109 12.8982 15.4109Z" fill="#00D053"/>
<path d="M16.2235 15.4109H14.2045C14.1493 15.4109 14.1045 15.4556 14.1045 15.5109V17.2682C14.1045 17.3235 14.1493 17.3682 14.2045 17.3682H16.2235C16.2787 17.3682 16.3235 17.3235 16.3235 17.2682V15.5109C16.3235 15.4556 16.2787 15.4109 16.2235 15.4109Z" fill="#00D053"/>
</svg>
